<?xml version="1.0" encoding="UTF-8" standalone="no"?>
<svg
   xmlns:dc="http://purl.org/dc/elements/1.1/"
   xmlns:cc="http://creativecommons.org/ns#"
   xmlns:rdf="http://www.w3.org/1999/02/22-rdf-syntax-ns#"
   xmlns:svg="http://www.w3.org/2000/svg"
   xmlns="http://www.w3.org/2000/svg"
   xmlns:xlink="http://www.w3.org/1999/xlink"
   xmlns:sodipodi="http://sodipodi.sourceforge.net/DTD/sodipodi-0.dtd"
   xmlns:inkscape="http://www.inkscape.org/namespaces/inkscape"
   width="125.00012mm"
   height="100.00002mm"
   viewBox="0 0 125.00012 100"
   version="1.1"
   id="svg8"
   inkscape:version="1.0.1 (3bc2e813f5, 2020-09-07)"
   sodipodi:docname="logo-small.svg">
  <defs
     id="defs2">
    <pattern
       inkscape:collect="always"
       xlink:href="#pattern853"
       id="pattern1863"
       patternTransform="matrix(0.05612374,0,0,0.19248305,64.991362,15.017195)" />
    <rect
       x="203.27483"
       y="15.352235"
       width="38.763573"
       height="12.993812"
       id="rect843" />
    <pattern
       patternUnits="userSpaceOnUse"
       width="1247.2442"
       height="362.83468"
       patternTransform="translate(604.72444,7.559049)"
       id="pattern853">
      <rect
         style="fill:none;fill-opacity:1;stroke:#1c7786;stroke-width:7.97458;stroke-linecap:square;stroke-linejoin:bevel;stroke-miterlimit:4;stroke-dasharray:none;stroke-opacity:1;paint-order:fill markers stroke"
         id="rect847"
         width="1239.2695"
         height="354.86011"
         x="3.9872882"
         y="3.9872882"
         ry="0" />
    </pattern>
  </defs>
  <sodipodi:namedview
     id="base"
     pagecolor="#ffffff"
     bordercolor="#666666"
     borderopacity="1.0"
     inkscape:pageopacity="0.0"
     inkscape:pageshadow="2"
     inkscape:zoom="1.1721182"
     inkscape:cx="158.05473"
     inkscape:cy="300.93957"
     inkscape:document-units="mm"
     inkscape:current-layer="layer1"
     inkscape:document-rotation="0"
     showgrid="false"
     inkscape:window-width="1920"
     inkscape:window-height="1017"
     inkscape:window-x="-8"
     inkscape:window-y="-8"
     inkscape:window-maximized="1" />
  <metadata
     id="metadata5">
    <rdf:RDF>
      <cc:Work
         rdf:about="">
        <dc:format>image/svg+xml</dc:format>
        <dc:type
           rdf:resource="http://purl.org/dc/dcmitype/StillImage" />
        <dc:title />
      </cc:Work>
    </rdf:RDF>
  </metadata>
  <g
     inkscape:label="Layer 1"
     inkscape:groupmode="layer"
     id="layer1"
     transform="translate(-9.9999997,-10.000009)">
    <g
       aria-label="O"
       transform="scale(0.98236421,1.0179524)"
       id="text839"
       style="font-size:82.5106px;line-height:1.25;font-family:'Book Antiqua';-inkscape-font-specification:'Book Antiqua';fill:#1c7786;fill-opacity:1;stroke-width:0.330041">
      <path
         d="m 71.256667,49.098098 q 0,-13.254877 8.541136,-21.35284 8.541136,-8.097964 22.762937,-8.097964 13.93978,0 21.8363,7.533926 7.93681,7.493638 7.93681,19.942747 0,13.41603 -9.18575,22.440626 -9.18575,9.024597 -23.16582,9.024597 -8.742578,0 -15.067853,-3.545377 Q 78.589152,71.498436 74.92291,64.6897 71.256667,57.880964 71.256667,49.098098 Z m 8.178541,-3.303647 q 0,9.105173 3.102205,15.87362 3.142493,6.728159 8.379982,10.112383 5.237489,3.343936 11.965645,3.343936 6.2447,0 10.91815,-2.860475 4.67346,-2.860475 7.33249,-8.541136 2.69932,-5.680662 2.69932,-13.818914 0,-8.541136 -2.98134,-14.584392 -2.94105,-6.083546 -8.09796,-9.145462 -5.15692,-3.061917 -12.20738,-3.061917 -6.446143,0 -11.119595,2.699321 -4.673451,2.699322 -7.332484,7.936811 -2.659033,5.1972 -2.659033,12.046225 z"
         style="font-size:82.5106px;fill:#1c7786;fill-opacity:1;stroke-width:0.330041"
         id="path844" />
    </g>
    <path
       id="path2057"
       style="color:#000000;font-style:normal;font-variant:normal;font-weight:normal;font-stretch:normal;font-size:medium;line-height:normal;font-family:sans-serif;font-variant-ligatures:normal;font-variant-position:normal;font-variant-caps:normal;font-variant-numeric:normal;font-variant-alternates:normal;font-variant-east-asian:normal;font-feature-settings:normal;font-variation-settings:normal;text-indent:0;text-align:start;text-decoration:none;text-decoration-line:none;text-decoration-style:solid;text-decoration-color:#000000;letter-spacing:normal;word-spacing:normal;text-transform:none;writing-mode:lr-tb;direction:ltr;text-orientation:mixed;dominant-baseline:auto;baseline-shift:baseline;text-anchor:start;white-space:normal;shape-padding:0;shape-margin:0;inline-size:0;clip-rule:nonzero;display:inline;overflow:visible;visibility:visible;opacity:1;isolation:auto;mix-blend-mode:normal;color-interpolation:sRGB;color-interpolation-filters:linearRGB;solid-color:#000000;solid-opacity:1;vector-effect:none;fill:#1c7786;fill-opacity:1;fill-rule:nonzero;stroke:none;stroke-width:12.093;stroke-linecap:square;stroke-linejoin:miter;stroke-miterlimit:4;stroke-dasharray:none;stroke-dashoffset:0;stroke-opacity:1;paint-order:fill markers stroke;color-rendering:auto;image-rendering:auto;shape-rendering:auto;text-rendering:auto;enable-background:accumulate;stop-color:#000000;stop-opacity:1"
       d="m 207.87305,18.898438 v 6.044921 247.183591 h 6 V 201.875 h 6.09179 V 30.988281 h 133.08985 v -6.089843 h 47.57617 v -6 z m 258.56836,11.33789 v 70.251952 h -6.0918 V 271.37305 H 289.46289 v 6.09179 h -47.57422 v 6 H 472.44141 V 30.236328 Z"
       transform="matrix(0.26458333,0,0,0.26458333,9.9999997,10.000009)" />
    <rect
       style="fill:#1c7786;fill-opacity:1;stroke:none;stroke-width:0.399911;stroke-linecap:square;stroke-linejoin:miter;stroke-miterlimit:4;stroke-dasharray:0.399911, 0.399911;stroke-dashoffset:0;stroke-opacity:1;paint-order:fill markers stroke"
       id="rect1818-2-8-4"
       width="6"
       height="6"
       x="129.00012"
       y="79.000084" />
    <rect
       style="fill:#1c7786;fill-opacity:1;stroke:none;stroke-width:0.599865;stroke-linecap:square;stroke-linejoin:miter;stroke-miterlimit:4;stroke-dasharray:0.599865, 0.599865;stroke-dashoffset:0;stroke-opacity:1;paint-order:fill markers stroke"
       id="rect1818-2-8-4-0"
       width="9"
       height="9"
       x="64.999741"
       y="15.00022" />
    <g
       id="g919"
       transform="matrix(0.8,0,0,0.8,12,2.2000026)">
      <g
         id="g883"
         style="stroke-width:0;stroke-miterlimit:4;stroke-dasharray:none">
        <path
           id="rect1818-2-8-4-9-0-1-0-0-9"
           style="fill:#1c7786;fill-opacity:1;stroke:none;stroke-width:0;stroke-linecap:square;stroke-linejoin:miter;stroke-miterlimit:4;stroke-dasharray:none;stroke-dashoffset:0;stroke-opacity:1;paint-order:fill markers stroke"
           d="m 95,59.058341 1.529166,-1.058333 H 125 v 4.941667 l -1,0.529166 h -9 l -1,0.529167 H 95 Z"
           sodipodi:nodetypes="ccccccccc" />
        <path
           id="rect1818-2-8-4-9-0-1-0-0"
           style="fill:#82ddec;fill-opacity:1;stroke:none;stroke-width:0;stroke-linecap:square;stroke-linejoin:miter;stroke-miterlimit:4;stroke-dasharray:none;stroke-dashoffset:0;stroke-opacity:1;paint-order:fill markers stroke"
           d="M 96.199997,60.529175 97,60.000008 h 26.8 v 1.470833 L 123,62.000008 H 96.199997 Z"
           sodipodi:nodetypes="ccccccc" />
      </g>
    </g>
    <g
       aria-label="I"
       transform="scale(0.99445482,1.0055761)"
       id="text835-8"
       style="font-style:normal;font-variant:normal;font-weight:normal;font-stretch:normal;font-size:151.875px;line-height:1.25;font-family:'Bodoni MT';-inkscape-font-specification:'Bodoni MT';display:inline;fill:#1c7786;fill-opacity:1;stroke-width:3.953;stroke-miterlimit:4;stroke-dasharray:none">
      <path
         d="M 26.2963,105.60801 V 13.726601 H 10.055761 V 9.9445572 h 50.27893 V 13.726601 H 43.945836 v 91.881409 h 16.388855 v 3.78204 h -50.27893 v -3.78204 z"
         style="font-style:normal;font-variant:normal;font-weight:normal;font-stretch:normal;font-size:151.875px;font-family:'Bodoni MT';-inkscape-font-specification:'Bodoni MT';fill:#1c7786;fill-opacity:1;stroke-width:3.953;stroke-miterlimit:4;stroke-dasharray:none"
         id="path1808-9" />
    </g>
    <path
       id="rect1818-2-8-4-9-8"
       style="fill:#82ddec;fill-opacity:1;stroke:none;stroke-width:2.09869;stroke-linecap:square;stroke-linejoin:miter;stroke-miterlimit:4;stroke-dasharray:2.09869, 2.09869;stroke-dashoffset:0;stroke-opacity:1;paint-order:fill markers stroke"
       d="m 30.368334,16.997219 1,-1.058333 h 8.163145 l 1.6e-5,6.356575 -1.057995,1.058333 v 27.516667 l -1.030676,2.116667 -0.05533,9.525 1.093306,2.116666 -0.0145,24.341667 1.065353,1.107281 v 12.700348 l -1.000012,1.05833 -8.163228,-5.3e-4 -6e-6,-6.349933 1.058323,-1.058331 V 64.628794 l 1.058333,-2.116666 v -9.525 l -1.058399,-2.116667 -1.2e-5,-20.108333 -1.058258,-1.058333 z"
       sodipodi:nodetypes="ccccccccccccccccccccccc" />
    <path
       id="rect1818-2-8-4-9-0-1-0-7"
       style="fill:#82ddec;fill-opacity:1;stroke:none;stroke-width:0.455321;stroke-linecap:square;stroke-linejoin:miter;stroke-miterlimit:4;stroke-dasharray:0.455321, 0.455321;stroke-dashoffset:0;stroke-opacity:1;paint-order:fill markers stroke"
       d="M 13.174999,11.322926 H 58.2552 l 3.7e-5,0.470833 -1.5875,0.529185 c 0,0 -29.825509,2.4e-5 -45.080238,-1.8e-5 v -0.470834 z"
       sodipodi:nodetypes="ccccccc" />
    <path
       id="rect1818-2-8-4-9-0-1-0-4-7"
       style="fill:#82ddec;fill-opacity:1;stroke:none;stroke-width:0.455321;stroke-linecap:square;stroke-linejoin:miter;stroke-miterlimit:4;stroke-dasharray:0.455321, 0.455321;stroke-dashoffset:0;stroke-opacity:1;paint-order:fill markers stroke"
       d="m 13.175002,107.63136 h 45.080196 l 3.7e-5,0.47083 -1.5875,0.52919 c 0,0 -29.825503,3e-5 -45.080233,-2e-5 v -0.47084 z"
       sodipodi:nodetypes="ccccccc" />
  </g>
</svg>
